<svg width="88" height="20" viewBox="0 0 88 20" fill="none" xmlns="http://www.w3.org/2000/svg">
<path d="M11.5927 5.03896C10.9026 4.65801 10.1781 4.34632 9.41906 4.1039C8.66001 3.84416 7.94409 3.71429 7.27131 3.71429C6.40875 3.71429 5.72734 3.8961 5.22706 4.25974C4.72678 4.62338 4.47664 5.15152 4.47664 5.84416C4.47664 6.32901 4.65777 6.7619 5.02005 7.14286C5.38232 7.50649 5.8481 7.82684 6.41738 8.1039C7.00391 8.38095 7.6077 8.64069 8.22874 8.88312C8.98778 9.16017 9.71232 9.51515 10.4024 9.94805C11.1097 10.3636 11.6876 10.9351 12.1361 11.6623C12.6019 12.3896 12.8348 13.3593 12.8348 14.5714C12.8348 15.5411 12.5846 16.4416 12.0843 17.2727C11.5841 18.0866 10.8509 18.7446 9.88483 19.2468C8.93603 19.7489 7.78021 20 6.41738 20C5.27881 20 4.14887 19.8268 3.02755 19.4805C1.92349 19.1342 0.914304 18.632 0 17.974L1.50084 15.2987C2.13913 15.7835 2.88092 16.1905 3.72622 16.5195C4.58877 16.8312 5.38232 16.987 6.10686 16.987C6.58989 16.987 7.07292 16.9091 7.55595 16.7532C8.05623 16.5974 8.47025 16.3463 8.79802 16C9.12579 15.6537 9.28967 15.1775 9.28967 14.5714C9.28967 14.1212 9.15167 13.7229 8.87565 13.3766C8.59963 13.0303 8.22874 12.7186 7.76296 12.4416C7.31443 12.1645 6.82278 11.9307 6.288 11.7403C5.70146 11.5152 5.09768 11.2641 4.47664 10.987C3.8556 10.6926 3.27769 10.3377 2.74291 9.92208C2.20813 9.50649 1.77685 8.99567 1.44909 8.38961C1.12132 7.76623 0.957432 7.00433 0.957432 6.1039C0.957432 5.0303 1.19895 4.1039 1.68197 3.32468C2.165 2.52814 2.84642 1.8961 3.72622 1.42857C4.60602 0.961039 5.62383 0.709957 6.77965 0.675324C8.21149 0.675324 9.40181 0.848484 10.3506 1.19481C11.2994 1.52381 12.1447 1.93074 12.8865 2.41558L11.5927 5.03896Z" fill="#087BE6"/>
<path d="M32.3459 0.77922V19.7922H28.9302V11.8961H20.0545V19.7922H16.6647V0.77922H20.0545V8.5974H28.9302V0.77922H32.3459Z" fill="#087BE6"/>
<path d="M35.2901 19.7922L43.7776 0H43.9588L52.4463 19.7922H48.513L42.8461 5.35065L45.3043 3.68831L38.6541 19.7922H35.2901ZM40.8795 12.8312H46.9346L48.1249 15.7143H39.8444L40.8795 12.8312Z" fill="#087BE6"/>
<path d="M60.9665 0.77922C62.4674 0.77922 63.7526 1.0303 64.8221 1.53247C65.9089 2.03463 66.737 2.75325 67.3063 3.68831C67.8928 4.62338 68.1861 5.74026 68.1861 7.03896C68.1861 7.80087 68.0653 8.56277 67.8238 9.32468C67.5995 10.0866 67.2286 10.7792 66.7111 11.4026C66.2108 12.026 65.5294 12.5281 64.6669 12.9091C63.8216 13.29 62.7779 13.4805 61.5358 13.4805H58.8188V19.7922H55.4289V0.77922H60.9665ZM61.5099 10.1818C62.338 10.1818 62.9763 10.0173 63.4248 9.68831C63.8906 9.34199 64.2097 8.93507 64.3822 8.46753C64.572 8 64.6669 7.5671 64.6669 7.16883C64.6669 6.90909 64.6237 6.60606 64.5375 6.25974C64.4685 5.91342 64.3218 5.57576 64.0976 5.24675C63.8906 4.90043 63.58 4.62338 63.166 4.41559C62.752 4.19048 62.2172 4.07792 61.5617 4.07792H58.8188V10.1818H61.5099ZM64.8997 12.2857L69.661 19.7922H65.7019L60.8371 12.3636L64.8997 12.2857Z" fill="#087BE6"/>
<path d="M76.4332 7.79221L76.3297 8.72727L76.8472 8.07792L83.4457 0.77922H87.8706L80.03 9.19481L88 19.7922H83.6786L77.5459 11.3766L76.4332 12.4675V19.7922H72.9916V0.77922H76.4332V7.79221Z" fill="#087BE6"/>
</svg>
