<svg width="88" height="7" viewBox="0 0 88 7" fill="none" xmlns="http://www.w3.org/2000/svg">
<path d="M3.75099 6.19114V6.69006H6.2618V6.19114H3.75099ZM4.12381 0.801296V1.29266H6.13246V0.801296H4.12381ZM3.53035 4.24082V6.9622H4.05534V4.73218H5.97268V6.93952H6.52049V4.24082H3.53035ZM5.92703 0.801296V0.899568C5.43247 2.47948 4.08577 3.69654 2.73906 4.21058C2.85319 4.31641 3.00536 4.51296 3.07384 4.64147C4.51945 4.02916 5.91181 2.78942 6.49767 0.929806L6.13246 0.778618L6.02594 0.801296H5.92703ZM4.25316 0.0226783C3.96403 0.952484 3.43905 1.83693 2.81515 2.40389C2.9521 2.48704 3.17275 2.66847 3.26405 2.76674C3.89556 2.13931 4.45859 1.17927 4.80097 0.151188L4.25316 0.0226783ZM4.10099 1.11123L3.72817 1.42117C4.19229 2.50972 5.19661 3.87797 6.76396 4.55076C6.84005 4.40713 6.99983 4.1879 7.12156 4.08207C5.56182 3.49244 4.54228 2.19222 4.10099 1.11123ZM0.395642 3.37905V6.12311H0.874978V3.37905H0.395642ZM0.905412 0.839093H2.33581V2.16955H0.905412V0.839093ZM0.395642 0.340173V2.66847H2.86841V0.340173H0.395642ZM1.46844 2.41901V5.87365H1.98582V2.41901H1.46844ZM0 6.06263L0.106519 6.61447C0.905412 6.41793 2.00104 6.15335 3.0434 5.89633L2.99014 5.38985C1.89452 5.64687 0.753242 5.91145 0 6.06263ZM1.65105 3.76458V4.27106H2.93688V3.76458H1.65105Z" fill="#4B4B4B"/>
<path d="M16.5181 0.50648V1.03564H22.9625V0.50648H16.5181ZM16.3126 6.12311V6.64471H23.1451V6.12311H16.3126ZM17.1952 4.23326V4.73974H18.58V6.40281H19.1278V4.23326H17.1952ZM16.8605 2.19978V5.04212H17.4159V2.69114H19.1278V2.19978H16.8605ZM19.1278 0.74838H18.58V2.44168H19.1278V0.74838ZM20.2691 0.75594V2.44924H20.8169V0.75594H20.2691ZM20.2691 2.18467V2.68359H22.0114V4.9892H22.5821V2.18467H20.2691ZM20.2691 4.23326V6.41793H20.8169V4.73974H22.3081V4.23326H20.2691Z" fill="#4B4B4B"/>
<path d="M36.2545 3.27322C36.673 3.81749 37.0839 4.55832 37.2132 5.04968L37.7078 4.7851C37.5632 4.29374 37.1371 3.57559 36.7034 3.03888L36.2545 3.27322ZM38.7958 1.35313V1.48164C38.6588 4.76998 38.5143 6.01728 38.2404 6.28942C38.1567 6.39525 38.0654 6.41793 37.9132 6.41037C37.7382 6.41037 37.3045 6.41037 36.8328 6.37257C36.9393 6.53132 37.0002 6.77322 37.0154 6.94708C37.4415 6.9622 37.8828 6.97732 38.1262 6.95464C38.3925 6.92441 38.5675 6.86393 38.7425 6.63715C39.0621 6.26674 39.199 5.07235 39.3436 1.65551C39.3512 1.57235 39.3512 1.35313 39.3512 1.35313H38.7958ZM36.6654 0.0075593C36.4219 1.07343 35.9882 2.07883 35.3796 2.72138C35.5165 2.79698 35.7676 2.97084 35.8741 3.07667C36.4676 2.36609 36.9545 1.2851 37.2436 0.120951L36.6654 0.0075593ZM32.9905 1.93521V2.42657H35.3263V1.93521H32.9905ZM32.5492 3.24298V3.7419H35.5926V3.24298H32.5492ZM32.747 4.24838C32.8916 4.70194 33.0285 5.27646 33.059 5.65443L33.5003 5.53348C33.4546 5.16307 33.3253 4.58855 33.1655 4.15011L32.747 4.24838ZM32.4579 6.24406L32.572 6.77322C33.4242 6.62959 34.6339 6.40281 35.7676 6.1987L35.7372 5.69222C34.535 5.90389 33.272 6.12311 32.4579 6.24406ZM35.0676 4.08207C34.9839 4.48272 34.8165 5.07235 34.6796 5.42765L35.0752 5.5486C35.2198 5.20086 35.3948 4.66415 35.5393 4.21058L35.0676 4.08207ZM33.8731 2.15443V6.2365L34.3905 6.13823V2.15443H33.8731ZM36.6274 1.35313L36.3839 1.89741H38.9936V1.35313H36.6274ZM33.8503 0.0302376C33.5611 0.657667 33.0361 1.45896 32.2905 2.0486C32.4046 2.12419 32.572 2.29806 32.6557 2.41901C33.4698 1.73866 34.0024 0.907127 34.322 0.302376V0.151188H34.1546V0.0302376H33.8503ZM33.9416 0.0302376V0.430886H34.0481C34.5274 0.839093 35.098 1.49676 35.372 1.90497L35.7752 1.4892C35.4785 1.08099 34.8698 0.461123 34.3676 0.0302376H33.9416Z" fill="#4B4B4B"/>
<path d="M50.1477 3.58315H54.203V4.4676H50.1477V3.58315ZM50.1477 2.24514H54.203V3.12203H50.1477V2.24514ZM49.5999 1.76134V4.9514H54.7736V1.76134H49.5999ZM51.8444 1.92765V4.72462H52.3998V1.92765H51.8444ZM50.9161 0.514039L50.5814 0.982721H53.0161V0.514039H50.9161ZM50.8553 0C50.452 0.733261 49.6988 1.64795 48.6716 2.30562C48.801 2.40389 48.9988 2.60043 49.0825 2.7365C50.1781 1.96544 50.9618 0.99784 51.4868 0.120951L50.8553 0ZM52.8335 0.514039V0.61987C52.6737 0.975162 52.3237 1.50432 52.0118 1.82937C52.1563 1.89741 52.3541 2.01836 52.4759 2.10151C52.8106 1.75378 53.2215 1.2095 53.4498 0.733261L53.0465 0.483801L52.9628 0.514039H52.8335ZM50.9694 5.45032C51.0607 5.91901 51.1216 6.53888 51.1216 6.90173L51.7074 6.82613C51.6998 6.47084 51.6161 5.87365 51.5096 5.40497L50.9694 5.45032ZM52.4911 5.46544C52.7117 5.91901 52.9324 6.53132 53.0085 6.90173L53.5639 6.7581C53.4726 6.38769 53.2367 5.7905 53.0085 5.34449L52.4911 5.46544ZM53.99 5.41253C54.4237 5.88877 54.9258 6.56155 55.1236 6.98488L55.6714 6.73542C55.4508 6.28942 54.941 5.64687 54.4997 5.18574L53.99 5.41253ZM49.7064 5.25378C49.4781 5.82073 49.0749 6.39525 48.6336 6.71274L49.1433 7C49.6075 6.62959 50.0031 6.00216 50.2466 5.39741L49.7064 5.25378Z" fill="#4B4B4B"/>
<path d="M65.3343 0.536717V1.09611H71.3298V0.536717H65.3343ZM64.9386 3.74946V4.31641H71.7634V3.74946H64.9386ZM65.8669 1.61771C66.156 2.17711 66.4527 2.91037 66.5592 3.35637L67.107 3.17495C67.0005 2.72894 66.6886 2.0108 66.3766 1.45896L65.8669 1.61771ZM70.2798 1.42873C70.0972 1.973 69.7396 2.75162 69.4581 3.22786L69.945 3.38661C70.2417 2.93305 70.5993 2.20734 70.8885 1.59503L70.2798 1.42873ZM68.0353 0.75594V6.97732H68.6211V0.75594H68.0353Z" fill="#4B4B4B"/>
<path d="M82.3849 6.09287V6.64471H86.6685V6.09287H82.3849ZM82.1262 3.75702V6.97732H82.7045V4.3013H86.3718V6.9622H86.9728V3.75702H82.1262ZM83.6555 0C83.3055 0.808855 82.6816 1.92009 82.1795 2.59287L82.674 2.80454C83.1838 2.13931 83.8229 1.09611 84.2794 0.219223L83.6555 0ZM85.4816 1.22462C86.2653 1.85961 87.1326 2.7743 87.5131 3.40173L88 3.02376C87.6044 2.39633 86.7066 1.50432 85.9305 0.892009L85.4816 1.22462ZM81.2284 2.34341L81.2665 2.92549C82.7197 2.86501 85.0175 2.76674 87.1555 2.65335L87.1859 2.10907C85.0175 2.20734 82.674 2.30562 81.2284 2.34341Z" fill="#4B4B4B"/>
</svg>
